# xmcd
#
# Track frame offsets:
#	151
#	18947
#	37022
#	53570
#	70923
#	92046
#	108391
#	130397
#	145215
#	181666
#	195649
#	211966
#	225795
#
# Disc length: 3167 seconds
#
# Revision: 1
# Processed by: cddbd v1.5.2PL0 Copyright (c) Steve Scherf et al.
# Submitted via: audiograbber 1.83.01
#
DISCID=a90c5d0d
DTITLE=Dynamic Bluesband - One more kiss and one more beer
DYEAR=1997
DGENRE=Blues
TTITLE0=I will change my life
TTITLE1=Tequila song
TTITLE2=Tonight
TTITLE3=Jump and jive
TTITLE4=Trust my baby
TTITLE5=One more kiss and one more beer
TTITLE6=Bad habits
TTITLE7=Marg
TTITLE8=Why didn't you this time
TTITLE9=Chair
TTITLE10=Don't you wait up for me
TTITLE11=Long tall woman
TTITLE12=Five days week
EXTD=
EXTT0=
EXTT1=
EXTT2=
EXTT3=
EXTT4=
EXTT5=
EXTT6=
EXTT7=
EXTT8=
EXTT9=
EXTT10=
EXTT11=
EXTT12=
PLAYORDER=
